<svg width="16" height="15" viewBox="0 0 16 15" fill="none" xmlns="http://www.w3.org/2000/svg">
<g clip-path="url(#clip0_279_3)">
<path d="M8.00016 13.5515C11.6821 13.5515 14.6668 10.9159 14.6668 7.66475C14.6668 4.4136 11.6821 1.77802 8.00016 1.77802C4.31826 1.77802 1.3335 4.4136 1.3335 7.66475C1.3335 10.9159 4.31826 13.5515 8.00016 13.5515Z" stroke="#3C3C3C" stroke-width="2" stroke-linecap="round" stroke-linejoin="round"/>
<path d="M1.3335 7.66473H14.6668" stroke="#3C3C3C" stroke-width="2" stroke-linecap="round" stroke-linejoin="round"/>
<path d="M8.00016 1.77802C9.66768 3.39001 10.6153 5.48197 10.6668 7.66475C10.6153 9.84753 9.66768 11.9395 8.00016 13.5515C6.33264 11.9395 5.38499 9.84753 5.3335 7.66475C5.38499 5.48197 6.33264 3.39001 8.00016 1.77802Z" stroke="#3C3C3C" stroke-width="2" stroke-linecap="round" stroke-linejoin="round"/>
</g>
<defs>
<clipPath id="clip0_279_3">
<rect width="16" height="14.1282" fill="white" transform="translate(0 0.600647)"/>
</clipPath>
</defs>
</svg>
