<svg width="18" height="17" viewBox="0 0 18 17" fill="none" xmlns="http://www.w3.org/2000/svg">
<path d="M16.5 8.59601H1.5" stroke="black" stroke-width="2" stroke-linecap="round" stroke-linejoin="round"/>
<path d="M4.0875 3.833L1.5 8.59598V12.7437C1.5 13.1104 1.65804 13.4621 1.93934 13.7213C2.22064 13.9806 2.60218 14.1263 3 14.1263H15C15.3978 14.1263 15.7794 13.9806 16.0607 13.7213C16.342 13.4621 16.5 13.1104 16.5 12.7437V8.59598L13.9125 3.833C13.7883 3.60266 13.5969 3.40881 13.3597 3.27325C13.1226 3.1377 12.8491 3.06581 12.57 3.06567H5.43C5.15094 3.06581 4.87745 3.1377 4.64028 3.27325C4.40312 3.40881 4.21168 3.60266 4.0875 3.833Z" stroke="black" stroke-width="2" stroke-linecap="round" stroke-linejoin="round"/>
<path d="M4.5 11.3611H4.5075" stroke="black" stroke-width="2" stroke-linecap="round" stroke-linejoin="round"/>
<path d="M7.5 11.3611H7.5075" stroke="black" stroke-width="2" stroke-linecap="round" stroke-linejoin="round"/>
</svg>
