<svg width="16" height="16" viewBox="0 0 16 16" fill="none" xmlns="http://www.w3.org/2000/svg">
<path d="M12.6667 6.9071H3.33333C2.59695 6.9071 2 7.46936 2 8.16294V12.5584C2 13.2519 2.59695 13.8142 3.33333 13.8142H12.6667C13.403 13.8142 14 13.2519 14 12.5584V8.16294C14 7.46936 13.403 6.9071 12.6667 6.9071Z" stroke="black" stroke-width="2" stroke-linecap="round" stroke-linejoin="round"/>
<path d="M4.6665 6.90709V4.39542C4.6665 3.56275 5.01769 2.76418 5.64281 2.17539C6.26794 1.58661 7.11578 1.25583 7.99984 1.25583C8.88389 1.25583 9.73174 1.58661 10.3569 2.17539C10.982 2.76418 11.3332 3.56275 11.3332 4.39542V6.90709" stroke="black" stroke-width="2" stroke-linecap="round" stroke-linejoin="round"/>
</svg>
