<svg width="34" height="26" viewBox="0 0 34 26" fill="none" xmlns="http://www.w3.org/2000/svg">
<path d="M0.291193 25.5071V18.2628C0.291193 16.1794 0.681818 14.0132 1.46307 11.7642C2.26799 9.49145 3.35701 7.34893 4.73011 5.33662C6.12689 3.30064 7.68939 1.58426 9.41761 0.187474L15.3835 4.05821C13.9867 6.16522 12.8149 8.36693 11.8679 10.6633C10.9446 12.9361 10.4948 15.4455 10.5185 18.1917V25.5071H0.291193ZM18.2955 25.5071V18.2628C18.2955 16.1794 18.6861 14.0132 19.4673 11.7642C20.2723 9.49145 21.3613 7.34893 22.7344 5.33662C24.1312 3.30064 25.6937 1.58426 27.4219 0.187474L33.3878 4.05821C31.991 6.16522 30.8191 8.36693 29.8722 10.6633C28.9489 12.9361 28.4991 15.4455 28.5227 18.1917V25.5071H18.2955Z" fill="#3D3C7A"/>
</svg>
