<svg width="114" height="19" viewBox="0 0 114 19" fill="none" xmlns="http://www.w3.org/2000/svg">
<path d="M102.5 0.135254L105.082 6.50008H113.437L106.678 10.4338L109.26 16.7986L102.5 12.8649L95.7405 16.7986L98.3224 10.4338L91.5628 6.50008H99.9181L102.5 0.135254Z" fill="#D34304"/>
<path d="M79.5 0.135254L82.0819 6.50008H90.4371L83.6776 10.4338L86.2595 16.7986L79.5 12.8649L72.7405 16.7986L75.3224 10.4338L68.5628 6.50008H76.9181L79.5 0.135254Z" fill="#D34304"/>
<path d="M57.5 0.135254L60.0819 6.50008H68.4371L61.6776 10.4338L64.2595 16.7986L57.5 12.8649L50.7405 16.7986L53.3224 10.4338L46.5628 6.50008H54.9181L57.5 0.135254Z" fill="#D34304"/>
<path d="M34.5 0.135254L37.0819 6.50008H45.4371L38.6776 10.4338L41.2595 16.7986L34.5 12.8649L27.7405 16.7986L30.3224 10.4338L23.5628 6.50008H31.9181L34.5 0.135254Z" fill="#D34304"/>
<path d="M11.5 0.135254L14.0819 6.50008H22.4371L15.6776 10.4338L18.2595 16.7986L11.5 12.8649L4.74047 16.7986L7.32238 10.4338L0.56285 6.50008H8.91809L11.5 0.135254Z" fill="#D34304"/>
</svg>
